<?xml version="1.0" encoding="UTF-8" standalone="no"?><!DOCTYPE svg PUBLIC "-//W3C//DTD SVG 1.1//EN" "http://www.w3.org/Graphics/SVG/1.1/DTD/svg11.dtd"><svg width="100%" height="100%" viewBox="0 0 576 512" version="1.1" xmlns="http://www.w3.org/2000/svg" xmlns:xlink="http://www.w3.org/1999/xlink" xml:space="preserve" xmlns:serif="http://www.serif.com/" style="fill-rule:evenodd;clip-rule:evenodd;stroke-linejoin:round;stroke-miterlimit:2;"><rect id="Hintergrung-40--" serif:id="Hintergrung 40 %" x="25" y="57" width="520.664" height="400" style="fill-opacity:0.4;"/><g id="CE-Bild-mit-Textoverlay" serif:id="CE Bild mit Textoverlay"><g><g id="BIld"><rect id="Hintergrung-40--1" serif:id="Hintergrung 40 %" x="288" y="134.25" width="272" height="130" style="fill:#fff;fill-opacity:0.4;"/><path d="M317.264,468.009l-55.2,-0.009l-62.7,-62.7c-3.1,-3.1 -8.2,-3.1 -11.3,0l-60.4,60.333l-30,-15.233l67.7,-67.7c15.6,-15.6 40.9,-15.6 56.6,0l67.7,67.7l131.7,-131.7c15.6,-15.6 40.9,-15.6 56.6,0l67.7,67.7l-0,45.2l-90.3,-90.3c-3.1,-3.1 -8.2,-3.1 -11.3,0l-126.8,126.709Z"/><path d="M51,305c0,-26.332 21.668,-48 48,-48c26.332,0 48,21.668 48,48c0,26.332 -21.668,48 -48,48c-26.332,0 -48,-21.668 -48,-48Zm64,0c0,-8.777 -7.223,-16 -16,-16c-8.777,0 -16,7.223 -16,16c0,8.777 7.223,16 16,16c8.777,0 16,-7.223 16,-16Z"/></g></g><g><path d="M515,172.46l0,0.08c0,8.809 -7.151,15.96 -15.96,15.96l-175.08,0c-8.809,0 -15.96,-7.151 -15.96,-15.96l0,-0.08c0,-8.809 7.151,-15.96 15.96,-15.96l175.08,0c8.809,0 15.96,7.151 15.96,15.96Z"/><path d="M475,225.96l0,0.08c0,8.809 -7.151,15.96 -15.96,15.96l-135.08,0c-8.809,0 -15.96,-7.151 -15.96,-15.96l0,-0.08c0,-8.809 7.151,-15.96 15.96,-15.96l135.08,0c8.809,0 15.96,7.151 15.96,15.96Z" style="fill-opacity:0.4;"/></g></g><path id="Rahmen" d="M0,96c0,-35.3 28.7,-64 64,-64l448,0c35.3,0 64,28.7 64,64l0,320c0,35.3 -28.7,64 -64,64l-448,0c-35.3,0 -64,-28.7 -64,-64l0,-320Zm544,320l0,-320c0,-17.7 -14.3,-32 -32,-32l-448,0c-17.7,0 -32,14.3 -32,32l0,320c0,17.7 14.3,32 32,32l448,0c17.7,0 32,-14.3 32,-32Z"/></svg>